<svg width="960" height="256" viewBox="0 0 960 256" fill="none" xmlns="http://www.w3.org/2000/svg">
<g clip-path="url(#clip0_87_104)">
<rect width="960" height="256" fill="black"/>
<g opacity="0.5" filter="url(#filter0_f_87_104)">
<path d="M1091.04 712.874C924.162 870.592 720.434 949.452 479.862 949.452C239.291 949.452 35.5633 870.592 -131.32 712.874C-239.024 609.745 -311.973 491.921 -350.166 359.402C-371.152 286.59 -381.645 209.341 -381.645 127.655C-381.645 10.7075 -360.135 -96.8784 -317.121 -195.105C-275.41 -290.355 -213.478 -376.804 -131.32 -454.45C-18.5955 -562.386 110.939 -633.868 257.285 -668.897C327.597 -685.726 401.789 -694.141 479.862 -694.141C609.893 -694.141 729.159 -670.8 837.661 -624.117C929.902 -584.43 1014.36 -527.875 1091.04 -454.45C1257.93 -296.732 1341.37 -102.697 1341.37 127.655C1341.37 358.007 1257.93 553.08 1091.04 712.874ZM213.283 392.249C217.418 396.208 221.611 400.053 225.862 403.783C295.137 464.577 379.804 494.973 479.862 494.973C542.925 494.973 625.094 494.973 703.905 494.973C786.648 494.973 853.724 427.904 853.724 345.161C853.724 269.634 853.724 190.401 853.724 127.655C853.724 53.8917 837.016 -10.6602 803.598 -66.0007C788.127 -91.6208 769.075 -115.267 746.442 -136.938C674.921 -205.421 586.061 -239.663 479.862 -239.663C429.739 -239.663 383.477 -232.035 341.079 -216.779C293.646 -199.712 251.048 -173.099 213.283 -136.938C185.618 -110.449 163.304 -81.0099 146.341 -48.6213C119.448 2.72456 106.001 61.4833 106.001 127.655C106.001 235.568 141.762 323.766 213.283 392.249Z" fill="#9D37E0"/>
</g>
<g opacity="0.5" filter="url(#filter1_f_87_104)">
<path d="M785.345 420.507C701.903 499.367 600.039 538.796 479.753 538.796C359.468 538.796 257.604 499.367 174.162 420.507C120.31 368.943 83.8357 310.031 64.739 243.772C54.2463 207.365 49 168.741 49 127.898C49 69.4243 59.7548 15.6314 81.2619 -33.4818C102.117 -81.1069 133.083 -124.332 174.162 -163.155C230.525 -217.123 295.292 -252.864 368.465 -270.378C403.621 -278.793 440.717 -283 479.753 -283C544.769 -283 604.402 -271.329 658.653 -247.988C704.773 -228.145 747.004 -199.867 785.345 -163.155C868.786 -84.2955 910.507 12.7221 910.507 127.898C910.507 243.074 868.786 340.611 785.345 420.507ZM346.464 260.195C348.531 262.175 350.628 264.097 352.753 265.962C387.391 296.359 429.724 311.557 479.753 311.557C511.285 311.557 552.369 311.557 591.775 311.557C633.146 311.557 666.684 278.023 666.684 236.651C666.684 198.887 666.684 159.271 666.684 127.898C666.684 91.0164 658.33 58.7405 641.621 31.0702C633.886 18.2601 624.36 6.43721 613.043 -4.39859C577.283 -38.6401 532.853 -55.7609 479.753 -55.7609C454.692 -55.7609 431.561 -51.9469 410.362 -44.3191C386.645 -35.7856 365.346 -22.4787 346.464 -4.39859C332.631 8.84607 321.474 23.5656 312.993 39.7599C299.546 65.4328 292.823 94.8122 292.823 127.898C292.823 181.854 310.703 225.953 346.464 260.195Z" fill="#9D37E0"/>
<path d="M785.345 420.507C701.903 499.367 600.039 538.796 479.753 538.796C359.468 538.796 257.604 499.367 174.162 420.507C120.31 368.943 83.8357 310.031 64.739 243.772C54.2463 207.365 49 168.741 49 127.898C49 69.4243 59.7548 15.6314 81.2619 -33.4818C102.117 -81.1069 133.083 -124.332 174.162 -163.155C230.525 -217.123 295.292 -252.864 368.465 -270.378C403.621 -278.793 440.717 -283 479.753 -283C544.769 -283 604.402 -271.329 658.653 -247.988C704.773 -228.145 747.004 -199.867 785.345 -163.155C868.786 -84.2955 910.507 12.7221 910.507 127.898C910.507 243.074 868.786 340.611 785.345 420.507ZM346.464 260.195C348.531 262.175 350.628 264.097 352.753 265.962C387.391 296.359 429.724 311.557 479.753 311.557C511.285 311.557 552.369 311.557 591.775 311.557C633.146 311.557 666.684 278.023 666.684 236.651C666.684 198.887 666.684 159.271 666.684 127.898C666.684 91.0164 658.33 58.7405 641.621 31.0702C633.886 18.2601 624.36 6.43721 613.043 -4.39859C577.283 -38.6401 532.853 -55.7609 479.753 -55.7609C454.692 -55.7609 431.561 -51.9469 410.362 -44.3191C386.645 -35.7856 365.346 -22.4787 346.464 -4.39859C332.631 8.84607 321.474 23.5656 312.993 39.7599C299.546 65.4328 292.823 94.8122 292.823 127.898C292.823 181.854 310.703 225.953 346.464 260.195Z" fill="white" fill-opacity="0.15"/>
</g>
<path d="M205.297 39.1036C214.596 30.3679 225.949 26.0001 239.354 26.0001C252.76 26.0001 264.113 30.3679 273.412 39.1036C279.383 44.7865 283.437 51.275 285.574 58.5691C286.766 62.6349 287.361 66.9511 287.361 71.5175C287.361 78.0713 286.134 84.0943 283.681 89.5865C281.358 94.7864 277.935 99.5106 273.412 103.759C264.113 112.61 252.76 117.035 239.354 117.035C225.949 117.035 214.596 112.61 205.297 103.759C195.997 95.0233 191.347 84.2762 191.347 71.5175C191.347 58.7588 195.997 47.9542 205.297 39.1036ZM254.209 56.8623C253.921 56.588 253.628 56.3236 253.33 56.0692C249.503 52.8048 244.844 51.1726 239.354 51.1726C235.833 51.1726 231.244 51.1726 226.844 51.1726C222.248 51.1726 218.521 54.8986 218.521 59.4955C218.521 63.6712 218.521 68.0491 218.521 71.5175C218.521 77.4945 220.514 82.3796 224.499 86.1727C228.485 89.9658 233.437 91.8624 239.354 91.8624C245.272 91.8624 250.224 89.9658 254.209 86.1727C255.782 84.6761 257.044 83.0094 257.996 81.1727C259.457 78.3545 260.188 75.1361 260.188 71.5175C260.188 65.5405 258.195 60.6554 254.209 56.8623Z" fill="white"/>
<path d="M299.642 132.857C290.371 141.619 279.053 146 265.688 146C252.323 146 241.004 141.619 231.733 132.857C225.75 127.128 221.697 120.582 219.575 113.22C218.409 109.174 217.826 104.883 217.826 100.345C217.826 93.8477 219.021 87.8707 221.411 82.4137C223.728 77.122 227.169 72.3193 231.733 68.0056C237.996 62.0092 245.192 58.0379 253.322 56.0919C257.228 55.1569 261.35 54.6895 265.688 54.6895C272.912 54.6895 279.537 55.9862 285.565 58.5797C290.69 60.7845 295.382 63.9265 299.642 68.0056C308.914 76.7677 313.549 87.5475 313.549 100.345C313.549 113.142 308.914 123.98 299.642 132.857ZM250.878 115.044C251.107 115.264 251.34 115.478 251.577 115.685C255.425 119.063 260.129 120.751 265.688 120.751C269.191 120.751 273.756 120.751 278.134 120.751C282.731 120.751 286.458 117.025 286.458 112.428C286.458 108.232 286.458 103.831 286.458 100.345C286.458 96.2468 285.53 92.6606 283.673 89.5861C282.813 88.1628 281.755 86.8491 280.498 85.6452C276.524 81.8405 271.588 79.9382 265.688 79.9382C262.903 79.9382 260.333 80.362 257.977 81.2096C255.342 82.1577 252.976 83.6363 250.878 85.6452C249.341 87.1168 248.101 88.7523 247.159 90.5517C245.665 93.4042 244.918 96.6686 244.918 100.345C244.918 106.34 246.904 111.24 250.878 115.044Z" fill="#9D37E0"/>
<path d="M265.648 80.3929C271.386 80.8919 276.127 82.6382 280.368 85.8815C281.625 87.0854 282.613 88.2515 283.672 89.5972C286.125 84.1049 287.352 78.0819 287.352 71.5282C287.352 66.9618 286.757 62.6456 285.565 58.5798C279.744 55.3201 272.997 53.8232 265.773 53.8232C261.436 53.8232 255.045 54.4469 253.35 56.0623C253.648 56.3168 253.902 56.625 254.19 56.8992C258.176 60.6924 260.168 65.5774 260.168 71.5545C260.168 75.1731 259.5 78.4479 258.039 81.2661C260.409 80.6424 262.864 80.3929 265.648 80.3929Z" fill="white"/>
<path d="M748.611 65.4163C748.611 64.4553 749.39 63.6762 750.351 63.6762H762.223C765.982 63.6762 769.029 66.7234 769.029 70.4823V124.93C769.029 128.689 765.982 131.736 762.223 131.736H750.351C749.39 131.736 748.611 130.957 748.611 129.996C748.611 128.386 746.504 127.547 745.224 128.524C740.975 131.768 735.386 133.642 728.329 133.642C710.498 133.642 695.797 117.988 695.797 97.7063C695.797 77.4244 710.498 61.7705 728.329 61.7705C735.386 61.7705 740.975 63.6447 745.224 66.8888C746.504 67.8657 748.611 67.0263 748.611 65.4163ZM732.413 114.313C741.805 114.313 748.611 107.915 748.611 97.7063C748.611 87.4973 741.805 81.0996 732.413 81.0996C723.021 81.0996 716.215 87.4973 716.215 97.7063C716.215 107.915 723.021 114.313 732.413 114.313Z" fill="white"/>
<path d="M374.934 135.548C357.524 135.548 345.576 128.334 339.268 117.225C337.623 114.328 338.935 110.773 341.818 109.102L348.975 104.953C352.503 102.908 356.908 104.543 359.562 107.639C363.12 111.791 368.204 114.313 375.615 114.313C385.96 114.313 388.547 110.229 388.547 106.554C388.547 100.701 383.102 98.3869 368.809 94.4394C354.653 90.4919 340.768 83.6859 340.768 65.4458C340.768 47.0695 356.286 36.4521 372.757 36.4521C386.23 36.4521 397.183 41.9985 404.399 52.4837C406.426 55.4286 405.21 59.3595 402.125 61.165L395.603 64.9813C392.17 66.9908 387.918 65.456 385.192 62.5584C382.275 59.4589 378.402 57.6869 372.757 57.6869C365.951 57.6869 362.548 61.0899 362.548 64.9013C362.548 69.2571 364.862 72.2518 379.699 76.7438C394.127 81.0996 410.326 86.1361 410.326 106.282C410.326 124.658 395.625 135.548 374.934 135.548Z" fill="white"/>
<path d="M560.011 122.759C563.368 127.247 560.165 133.642 554.561 133.642H548.485C546.303 133.642 544.253 132.595 542.973 130.827L526.927 108.664C525.766 107.061 523.231 107.882 523.231 109.861V126.836C523.231 130.595 520.184 133.642 516.425 133.642H509.619C505.86 133.642 502.813 130.595 502.813 126.836V45.1638C502.813 41.405 505.86 38.3578 509.619 38.3578H516.425C520.184 38.3578 523.231 41.405 523.231 45.1638V88.798C523.231 90.8049 525.823 91.6076 526.958 89.9518L541.622 68.5419C542.891 66.6894 544.992 65.5819 547.237 65.5819H554.097C559.661 65.5819 562.874 71.8954 559.599 76.3936L545.652 95.5515C543.895 97.9654 543.916 101.243 545.705 103.634L560.011 122.759Z" fill="white"/>
<path d="M672.246 77.6966C674.61 69.7749 681.802 65.4477 689.271 64.4472C691.134 64.1977 692.664 65.7443 692.664 67.6237V83.3653C692.664 85.4609 690.778 87.0454 688.683 87.088C680.903 87.2462 672.246 91.4226 672.246 102.879V130.239C672.246 132.118 670.722 133.642 668.843 133.642H655.231C653.351 133.642 651.828 132.118 651.828 130.239V68.9849C651.828 67.1055 653.351 65.5819 655.231 65.5819H668.843C670.722 65.5819 672.246 67.1055 672.246 68.9849V77.6966Z" fill="white"/>
<path d="M429.876 73.9863C437.091 67.2085 445.9 63.8195 456.301 63.8195C466.702 63.8195 475.51 67.2085 482.726 73.9863C487.359 78.3956 490.504 83.43 492.162 89.0894C493.087 92.244 493.549 95.5928 493.549 99.1358C493.549 104.221 492.597 108.894 490.693 113.155C488.891 117.19 486.235 120.855 482.726 124.152C475.51 131.019 466.702 134.452 456.301 134.452C445.9 134.452 437.091 131.019 429.876 124.152C422.661 117.374 419.053 109.035 419.053 99.1358C419.053 89.2366 422.661 80.8534 429.876 73.9863ZM467.827 87.765C467.603 87.5522 467.376 87.3471 467.144 87.1497C464.175 84.6169 460.56 83.3505 456.301 83.3505C453.569 83.3505 450.008 83.3505 446.595 83.3505C443.028 83.3505 440.137 86.2415 440.137 89.8081C440.137 93.048 440.137 96.4448 440.137 99.1358C440.137 103.773 441.683 107.564 444.775 110.507C447.867 113.45 451.709 114.921 456.301 114.921C460.892 114.921 464.734 113.45 467.827 110.507C469.047 109.345 470.026 108.052 470.765 106.627C471.898 104.441 472.465 101.943 472.465 99.1358C472.465 94.4983 470.919 90.7081 467.827 87.765Z" fill="white"/>
<path d="M633.742 123.899C626.298 130.934 617.21 134.452 606.479 134.452C595.747 134.452 586.66 130.934 579.215 123.899C574.411 119.299 571.157 114.043 569.453 108.131C568.517 104.883 568.049 101.437 568.049 97.7936C568.049 92.5769 569.008 87.7777 570.927 83.3961C572.788 79.1471 575.55 75.2908 579.215 71.8272C584.244 67.0124 590.022 63.8238 596.55 62.2612C599.686 61.5105 602.996 61.1352 606.479 61.1352C612.279 61.1352 617.599 62.1764 622.439 64.2588C626.554 66.0291 630.322 68.5519 633.742 71.8272C641.186 78.8627 644.909 87.5181 644.909 97.7936C644.909 108.069 641.186 116.771 633.742 123.899ZM594.587 109.597C594.772 109.773 594.959 109.945 595.148 110.111C598.239 112.823 602.015 114.179 606.479 114.179C609.292 114.179 612.957 114.179 616.473 114.179C620.164 114.179 623.156 111.187 623.156 107.496C623.156 104.127 623.156 100.593 623.156 97.7936C623.156 94.5032 622.41 91.6237 620.92 89.1551C620.23 88.0122 619.38 86.9574 618.37 85.9907C615.18 82.9358 611.216 81.4084 606.479 81.4084C604.243 81.4084 602.179 81.7487 600.288 82.4292C598.172 83.1905 596.272 84.3777 594.587 85.9907C593.353 87.1724 592.358 88.4856 591.601 89.9303C590.401 92.2208 589.802 94.8419 589.802 97.7936C589.802 102.607 591.397 106.542 594.587 109.597Z" fill="white"/>
<path d="M240.489 216V181.6H247.339V216H240.489ZM229.289 186.9V180.85H258.539V186.9H229.289ZM278.785 216V202.15C278.785 200.717 278.335 199.55 277.435 198.65C276.535 197.75 275.368 197.3 273.935 197.3C273.001 197.3 272.168 197.5 271.435 197.9C270.701 198.3 270.118 198.867 269.685 199.6C269.285 200.333 269.085 201.183 269.085 202.15L266.535 200.85C266.535 198.95 266.935 197.3 267.735 195.9C268.535 194.467 269.635 193.35 271.035 192.55C272.468 191.75 274.101 191.35 275.935 191.35C277.768 191.35 279.385 191.75 280.785 192.55C282.218 193.35 283.335 194.45 284.135 195.85C284.935 197.25 285.335 198.867 285.335 200.7V216H278.785ZM262.535 216V179.85H269.085V216H262.535ZM302.161 216.5C299.628 216.5 297.378 215.967 295.411 214.9C293.444 213.8 291.878 212.3 290.711 210.4C289.578 208.5 289.011 206.333 289.011 203.9C289.011 201.5 289.561 199.367 290.661 197.5C291.794 195.6 293.328 194.1 295.261 193C297.194 191.867 299.344 191.3 301.711 191.3C304.044 191.3 306.094 191.833 307.861 192.9C309.661 193.933 311.061 195.367 312.061 197.2C313.094 199 313.611 201.05 313.611 203.35C313.611 203.783 313.578 204.233 313.511 204.7C313.478 205.133 313.394 205.633 313.261 206.2L292.961 206.25V201.35L310.211 201.3L307.561 203.35C307.494 201.917 307.228 200.717 306.761 199.75C306.328 198.783 305.678 198.05 304.811 197.55C303.978 197.017 302.944 196.75 301.711 196.75C300.411 196.75 299.278 197.05 298.311 197.65C297.344 198.217 296.594 199.033 296.061 200.1C295.561 201.133 295.311 202.367 295.311 203.8C295.311 205.267 295.578 206.55 296.111 207.65C296.678 208.717 297.478 209.55 298.511 210.15C299.544 210.717 300.744 211 302.111 211C303.344 211 304.461 210.8 305.461 210.4C306.461 209.967 307.328 209.333 308.061 208.5L311.911 212.35C310.744 213.717 309.311 214.75 307.611 215.45C305.944 216.15 304.128 216.5 302.161 216.5ZM327.427 216V191.85H333.977V216H327.427ZM343.177 216V201.75C343.177 200.35 342.727 199.267 341.827 198.5C340.961 197.7 339.877 197.3 338.577 197.3C337.711 197.3 336.927 197.483 336.227 197.85C335.527 198.183 334.977 198.683 334.577 199.35C334.177 200.017 333.977 200.817 333.977 201.75L331.427 200.5C331.427 198.633 331.827 197.017 332.627 195.65C333.461 194.283 334.577 193.233 335.977 192.5C337.377 191.733 338.961 191.35 340.727 191.35C342.394 191.35 343.911 191.733 345.277 192.5C346.644 193.233 347.727 194.283 348.527 195.65C349.327 196.983 349.727 198.6 349.727 200.5V216H343.177ZM358.927 216V201.75C358.927 200.35 358.477 199.267 357.577 198.5C356.711 197.7 355.627 197.3 354.327 197.3C353.494 197.3 352.711 197.483 351.977 197.85C351.277 198.183 350.727 198.683 350.327 199.35C349.927 200.017 349.727 200.817 349.727 201.75L345.977 200.85C346.111 198.917 346.627 197.25 347.527 195.85C348.427 194.417 349.611 193.317 351.077 192.55C352.544 191.75 354.177 191.35 355.977 191.35C357.777 191.35 359.394 191.733 360.827 192.5C362.261 193.233 363.394 194.3 364.227 195.7C365.061 197.1 365.477 198.767 365.477 200.7V216H358.927ZM381.087 216.5C378.953 216.5 377.053 216.05 375.387 215.15C373.753 214.25 372.47 213 371.537 211.4C370.603 209.8 370.137 207.95 370.137 205.85V191.85H376.737V205.7C376.737 206.7 376.903 207.567 377.237 208.3C377.57 209 378.07 209.533 378.737 209.9C379.403 210.267 380.187 210.45 381.087 210.45C382.453 210.45 383.52 210.033 384.287 209.2C385.053 208.367 385.437 207.2 385.437 205.7V191.85H391.987V205.85C391.987 207.983 391.52 209.85 390.587 211.45C389.687 213.05 388.403 214.3 386.737 215.2C385.103 216.067 383.22 216.5 381.087 216.5ZM397.203 216V179.85H403.753V216H397.203ZM413.106 216V181.8H419.656V216H413.106ZM407.456 197.6V191.85H425.306V197.6H407.456ZM428.99 216V191.85H435.59V216H428.99ZM432.29 187.95C431.223 187.95 430.34 187.6 429.64 186.9C428.94 186.167 428.59 185.267 428.59 184.2C428.59 183.167 428.94 182.283 429.64 181.55C430.34 180.817 431.223 180.45 432.29 180.45C433.39 180.45 434.273 180.817 434.94 181.55C435.64 182.283 435.99 183.167 435.99 184.2C435.99 185.267 435.64 186.167 434.94 186.9C434.273 187.6 433.39 187.95 432.29 187.95ZM441.392 206.2V200.25H458.692V206.2H441.392ZM477.888 216.5C476.155 216.5 474.588 216.15 473.188 215.45C471.788 214.717 470.671 213.733 469.838 212.5C469.005 211.267 468.555 209.85 468.488 208.25V199.7C468.555 198.1 469.005 196.683 469.838 195.45C470.705 194.183 471.821 193.183 473.188 192.45C474.588 191.717 476.155 191.35 477.888 191.35C480.121 191.35 482.121 191.9 483.888 193C485.655 194.1 487.038 195.6 488.038 197.5C489.071 199.4 489.588 201.55 489.588 203.95C489.588 206.317 489.071 208.45 488.038 210.35C487.038 212.25 485.655 213.75 483.888 214.85C482.121 215.95 480.121 216.5 477.888 216.5ZM464.488 226.1V191.85H471.038V198.2L469.938 204.05L470.988 209.9V226.1H464.488ZM476.738 210.45C477.938 210.45 479.005 210.183 479.938 209.65C480.871 209.083 481.588 208.317 482.088 207.35C482.621 206.35 482.888 205.2 482.888 203.9C482.888 202.633 482.621 201.517 482.088 200.55C481.588 199.55 480.871 198.783 479.938 198.25C479.005 197.683 477.938 197.4 476.738 197.4C475.571 197.4 474.521 197.683 473.588 198.25C472.655 198.783 471.921 199.55 471.388 200.55C470.888 201.517 470.638 202.633 470.638 203.9C470.638 205.2 470.888 206.35 471.388 207.35C471.921 208.317 472.638 209.083 473.538 209.65C474.471 210.183 475.538 210.45 476.738 210.45ZM504.182 216.5C502.049 216.5 500.149 216.05 498.482 215.15C496.849 214.25 495.566 213 494.632 211.4C493.699 209.8 493.232 207.95 493.232 205.85V191.85H499.832V205.7C499.832 206.7 499.999 207.567 500.332 208.3C500.666 209 501.166 209.533 501.832 209.9C502.499 210.267 503.282 210.45 504.182 210.45C505.549 210.45 506.616 210.033 507.382 209.2C508.149 208.367 508.532 207.2 508.532 205.7V191.85H515.082V205.85C515.082 207.983 514.616 209.85 513.682 211.45C512.782 213.05 511.499 214.3 509.832 215.2C508.199 216.067 506.316 216.5 504.182 216.5ZM520.298 216V191.85H526.848V216H520.298ZM526.848 202.65L524.298 200.95C524.598 197.983 525.465 195.65 526.898 193.95C528.332 192.217 530.398 191.35 533.098 191.35C534.265 191.35 535.315 191.55 536.248 191.95C537.182 192.317 538.032 192.933 538.798 193.8L534.698 198.5C534.332 198.1 533.882 197.8 533.348 197.6C532.848 197.4 532.265 197.3 531.598 197.3C530.198 197.3 529.048 197.75 528.148 198.65C527.282 199.517 526.848 200.85 526.848 202.65ZM554.402 216.5C552.668 216.5 551.102 216.15 549.702 215.45C548.302 214.717 547.185 213.733 546.352 212.5C545.518 211.267 545.068 209.85 545.002 208.25V199.7C545.068 198.1 545.518 196.683 546.352 195.45C547.218 194.183 548.335 193.183 549.702 192.45C551.102 191.717 552.668 191.35 554.402 191.35C556.635 191.35 558.635 191.9 560.402 193C562.168 194.1 563.552 195.6 564.552 197.5C565.585 199.4 566.102 201.55 566.102 203.95C566.102 206.317 565.585 208.45 564.552 210.35C563.552 212.25 562.168 213.75 560.402 214.85C558.635 215.95 556.635 216.5 554.402 216.5ZM541.002 226.1V191.85H547.552V198.2L546.452 204.05L547.502 209.9V226.1H541.002ZM553.252 210.45C554.452 210.45 555.518 210.183 556.452 209.65C557.385 209.083 558.102 208.317 558.602 207.35C559.135 206.35 559.402 205.2 559.402 203.9C559.402 202.633 559.135 201.517 558.602 200.55C558.102 199.55 557.385 198.783 556.452 198.25C555.518 197.683 554.452 197.4 553.252 197.4C552.085 197.4 551.035 197.683 550.102 198.25C549.168 198.783 548.435 199.55 547.902 200.55C547.402 201.517 547.152 202.633 547.152 203.9C547.152 205.2 547.402 206.35 547.902 207.35C548.435 208.317 549.152 209.083 550.052 209.65C550.985 210.183 552.052 210.45 553.252 210.45ZM581.746 216.5C579.313 216.5 577.113 215.95 575.146 214.85C573.213 213.717 571.663 212.2 570.496 210.3C569.363 208.367 568.796 206.217 568.796 203.85C568.796 201.483 569.363 199.367 570.496 197.5C571.629 195.6 573.179 194.1 575.146 193C577.113 191.867 579.296 191.3 581.696 191.3C584.163 191.3 586.363 191.867 588.296 193C590.263 194.1 591.813 195.6 592.946 197.5C594.079 199.367 594.646 201.483 594.646 203.85C594.646 206.217 594.079 208.367 592.946 210.3C591.813 212.2 590.263 213.717 588.296 214.85C586.363 215.95 584.179 216.5 581.746 216.5ZM581.696 210.4C582.929 210.4 584.013 210.133 584.946 209.6C585.913 209.033 586.646 208.267 587.146 207.3C587.679 206.3 587.946 205.167 587.946 203.9C587.946 202.633 587.679 201.517 587.146 200.55C586.613 199.583 585.879 198.833 584.946 198.3C584.013 197.733 582.929 197.45 581.696 197.45C580.496 197.45 579.429 197.733 578.496 198.3C577.563 198.833 576.829 199.583 576.296 200.55C575.763 201.517 575.496 202.633 575.496 203.9C575.496 205.167 575.763 206.3 576.296 207.3C576.829 208.267 577.563 209.033 578.496 209.6C579.429 210.133 580.496 210.4 581.696 210.4ZM607.163 216.55C605.796 216.55 604.446 216.367 603.113 216C601.813 215.633 600.613 215.133 599.513 214.5C598.413 213.833 597.463 213.033 596.663 212.1L600.563 208.15C601.396 209.083 602.363 209.783 603.463 210.25C604.563 210.717 605.78 210.95 607.113 210.95C608.18 210.95 608.98 210.8 609.513 210.5C610.08 210.2 610.363 209.75 610.363 209.15C610.363 208.483 610.063 207.967 609.463 207.6C608.896 207.233 608.146 206.933 607.213 206.7C606.28 206.433 605.296 206.15 604.263 205.85C603.263 205.517 602.296 205.1 601.363 204.6C600.43 204.067 599.663 203.35 599.063 202.45C598.496 201.517 598.213 200.317 598.213 198.85C598.213 197.317 598.58 195.983 599.313 194.85C600.08 193.717 601.163 192.833 602.563 192.2C603.963 191.567 605.613 191.25 607.513 191.25C609.513 191.25 611.313 191.6 612.913 192.3C614.546 193 615.896 194.05 616.963 195.45L613.013 199.4C612.28 198.5 611.446 197.85 610.513 197.45C609.613 197.05 608.63 196.85 607.563 196.85C606.596 196.85 605.846 197 605.313 197.3C604.813 197.6 604.563 198.017 604.563 198.55C604.563 199.15 604.846 199.617 605.413 199.95C606.013 200.283 606.78 200.583 607.713 200.85C608.646 201.083 609.613 201.367 610.613 201.7C611.646 202 612.613 202.433 613.513 203C614.446 203.567 615.196 204.317 615.763 205.25C616.363 206.183 616.663 207.383 616.663 208.85C616.663 211.217 615.813 213.1 614.113 214.5C612.413 215.867 610.096 216.55 607.163 216.55ZM632.63 216.5C630.096 216.5 627.846 215.967 625.88 214.9C623.913 213.8 622.346 212.3 621.18 210.4C620.046 208.5 619.48 206.333 619.48 203.9C619.48 201.5 620.03 199.367 621.13 197.5C622.263 195.6 623.796 194.1 625.73 193C627.663 191.867 629.813 191.3 632.18 191.3C634.513 191.3 636.563 191.833 638.33 192.9C640.13 193.933 641.53 195.367 642.53 197.2C643.563 199 644.08 201.05 644.08 203.35C644.08 203.783 644.046 204.233 643.98 204.7C643.946 205.133 643.863 205.633 643.73 206.2L623.43 206.25V201.35L640.68 201.3L638.03 203.35C637.963 201.917 637.696 200.717 637.23 199.75C636.796 198.783 636.146 198.05 635.28 197.55C634.446 197.017 633.413 196.75 632.18 196.75C630.88 196.75 629.746 197.05 628.78 197.65C627.813 198.217 627.063 199.033 626.53 200.1C626.03 201.133 625.78 202.367 625.78 203.8C625.78 205.267 626.046 206.55 626.58 207.65C627.146 208.717 627.946 209.55 628.98 210.15C630.013 210.717 631.213 211 632.58 211C633.813 211 634.93 210.8 635.93 210.4C636.93 209.967 637.796 209.333 638.53 208.5L642.38 212.35C641.213 213.717 639.78 214.75 638.08 215.45C636.413 216.15 634.596 216.5 632.63 216.5ZM671.296 216.5C669.563 216.5 667.996 216.133 666.596 215.4C665.196 214.667 664.079 213.667 663.246 212.4C662.413 211.133 661.963 209.717 661.896 208.15V199.55C661.963 197.983 662.413 196.583 663.246 195.35C664.113 194.083 665.246 193.1 666.646 192.4C668.046 191.7 669.596 191.35 671.296 191.35C673.529 191.35 675.529 191.9 677.296 193C679.063 194.1 680.446 195.6 681.446 197.5C682.479 199.4 682.996 201.55 682.996 203.95C682.996 206.317 682.479 208.45 681.446 210.35C680.446 212.25 679.063 213.75 677.296 214.85C675.529 215.95 673.529 216.5 671.296 216.5ZM657.896 216V179.85H664.446V197.8L663.346 203.6L664.396 209.5V216H657.896ZM670.196 210.45C671.396 210.45 672.446 210.183 673.346 209.65C674.279 209.083 674.996 208.317 675.496 207.35C676.029 206.35 676.296 205.2 676.296 203.9C676.296 202.633 676.029 201.517 675.496 200.55C674.996 199.55 674.279 198.783 673.346 198.25C672.413 197.683 671.346 197.4 670.146 197.4C668.946 197.4 667.879 197.683 666.946 198.25C666.046 198.783 665.329 199.55 664.796 200.55C664.296 201.517 664.046 202.633 664.046 203.9C664.046 205.2 664.296 206.35 664.796 207.35C665.329 208.317 666.063 209.083 666.996 209.65C667.929 210.183 668.996 210.45 670.196 210.45ZM698.641 216.5C696.207 216.5 694.007 215.95 692.041 214.85C690.107 213.717 688.557 212.2 687.391 210.3C686.257 208.367 685.691 206.217 685.691 203.85C685.691 201.483 686.257 199.367 687.391 197.5C688.524 195.6 690.074 194.1 692.041 193C694.007 191.867 696.191 191.3 698.591 191.3C701.057 191.3 703.257 191.867 705.191 193C707.157 194.1 708.707 195.6 709.841 197.5C710.974 199.367 711.541 201.483 711.541 203.85C711.541 206.217 710.974 208.367 709.841 210.3C708.707 212.2 707.157 213.717 705.191 214.85C703.257 215.95 701.074 216.5 698.641 216.5ZM698.591 210.4C699.824 210.4 700.907 210.133 701.841 209.6C702.807 209.033 703.541 208.267 704.041 207.3C704.574 206.3 704.841 205.167 704.841 203.9C704.841 202.633 704.574 201.517 704.041 200.55C703.507 199.583 702.774 198.833 701.841 198.3C700.907 197.733 699.824 197.45 698.591 197.45C697.391 197.45 696.324 197.733 695.391 198.3C694.457 198.833 693.724 199.583 693.191 200.55C692.657 201.517 692.391 202.633 692.391 203.9C692.391 205.167 692.657 206.3 693.191 207.3C693.724 208.267 694.457 209.033 695.391 209.6C696.324 210.133 697.391 210.4 698.591 210.4ZM718.721 216V181.8H725.271V216H718.721ZM713.071 197.6V191.85H730.921V197.6H713.071Z" fill="#F2F1F7"/>
</g>
<defs>
<filter id="filter0_f_87_104" x="-2881.64" y="-3194.14" width="6723.01" height="6643.59" filterUnits="userSpaceOnUse" color-interpolation-filters="sRGB">
<feFlood flood-opacity="0" result="BackgroundImageFix"/>
<feBlend mode="normal" in="SourceGraphic" in2="BackgroundImageFix" result="shape"/>
<feGaussianBlur stdDeviation="1250" result="effect1_foregroundBlur_87_104"/>
</filter>
<filter id="filter1_f_87_104" x="-651" y="-983" width="2261.51" height="2221.8" filterUnits="userSpaceOnUse" color-interpolation-filters="sRGB">
<feFlood flood-opacity="0" result="BackgroundImageFix"/>
<feBlend mode="normal" in="SourceGraphic" in2="BackgroundImageFix" result="shape"/>
<feGaussianBlur stdDeviation="350" result="effect1_foregroundBlur_87_104"/>
</filter>
<clipPath id="clip0_87_104">
<rect width="960" height="256" fill="white"/>
</clipPath>
</defs>
</svg>
